<mxfile host="app.diagrams.net" agent="Mozilla/5.0 (Windows NT 10.0; Win64; x64) AppleWebKit/537.36 (KHTML, like Gecko) Chrome/130.0.0.0 Safari/537.36" version="24.8.3">
  <diagram id="C5RBs43oDa-KdzZeNtuy" name="Page-1">
    <mxGraphModel dx="1290" dy="557" grid="1" gridSize="10" guides="1" tooltips="1" connect="1" arrows="1" fold="1" page="1" pageScale="1" pageWidth="827" pageHeight="1169" math="0" shadow="0">
      <root>
        <mxCell id="WIyWlLk6GJQsqaUBKTNV-0" />
        <mxCell id="WIyWlLk6GJQsqaUBKTNV-1" parent="WIyWlLk6GJQsqaUBKTNV-0" />
        <mxCell id="e4H0x4Xwtdk4AJO3a8ik-4" value="User" style="swimlane;fontStyle=1;align=center;verticalAlign=top;childLayout=stackLayout;horizontal=1;startSize=26;horizontalStack=0;resizeParent=1;resizeParentMax=0;resizeLast=0;collapsible=1;marginBottom=0;whiteSpace=wrap;html=1;" vertex="1" parent="WIyWlLk6GJQsqaUBKTNV-1">
          <mxGeometry x="110" y="249" width="160" height="144" as="geometry" />
        </mxCell>
        <mxCell id="e4H0x4Xwtdk4AJO3a8ik-5" value="- Id: int&amp;nbsp;&lt;div&gt;- Name: string&amp;nbsp;&lt;/div&gt;&lt;div&gt;- Email: string&lt;/div&gt;&lt;div&gt;- Password: string&lt;/div&gt;&lt;div&gt;-Roleld: int&lt;/div&gt;" style="text;strokeColor=none;fillColor=none;align=left;verticalAlign=top;spacingLeft=4;spacingRight=4;overflow=hidden;rotatable=0;points=[[0,0.5],[1,0.5]];portConstraint=eastwest;whiteSpace=wrap;html=1;" vertex="1" parent="e4H0x4Xwtdk4AJO3a8ik-4">
          <mxGeometry y="26" width="160" height="84" as="geometry" />
        </mxCell>
        <mxCell id="e4H0x4Xwtdk4AJO3a8ik-6" value="" style="line;strokeWidth=1;fillColor=none;align=left;verticalAlign=middle;spacingTop=-1;spacingLeft=3;spacingRight=3;rotatable=0;labelPosition=right;points=[];portConstraint=eastwest;strokeColor=inherit;" vertex="1" parent="e4H0x4Xwtdk4AJO3a8ik-4">
          <mxGeometry y="110" width="160" height="8" as="geometry" />
        </mxCell>
        <mxCell id="e4H0x4Xwtdk4AJO3a8ik-7" value="+ Role: Role" style="text;strokeColor=none;fillColor=none;align=left;verticalAlign=top;spacingLeft=4;spacingRight=4;overflow=hidden;rotatable=0;points=[[0,0.5],[1,0.5]];portConstraint=eastwest;whiteSpace=wrap;html=1;" vertex="1" parent="e4H0x4Xwtdk4AJO3a8ik-4">
          <mxGeometry y="118" width="160" height="26" as="geometry" />
        </mxCell>
        <mxCell id="e4H0x4Xwtdk4AJO3a8ik-8" value="Role" style="swimlane;fontStyle=0;childLayout=stackLayout;horizontal=1;startSize=26;fillColor=none;horizontalStack=0;resizeParent=1;resizeParentMax=0;resizeLast=0;collapsible=1;marginBottom=0;whiteSpace=wrap;html=1;" vertex="1" parent="WIyWlLk6GJQsqaUBKTNV-1">
          <mxGeometry x="120" y="459" width="140" height="78" as="geometry" />
        </mxCell>
        <mxCell id="e4H0x4Xwtdk4AJO3a8ik-9" value="- Id: int&lt;div&gt;&lt;br&gt;&lt;/div&gt;" style="text;strokeColor=none;fillColor=none;align=left;verticalAlign=top;spacingLeft=4;spacingRight=4;overflow=hidden;rotatable=0;points=[[0,0.5],[1,0.5]];portConstraint=eastwest;whiteSpace=wrap;html=1;" vertex="1" parent="e4H0x4Xwtdk4AJO3a8ik-8">
          <mxGeometry y="26" width="140" height="26" as="geometry" />
        </mxCell>
        <mxCell id="e4H0x4Xwtdk4AJO3a8ik-10" value="- Name: string" style="text;strokeColor=none;fillColor=none;align=left;verticalAlign=top;spacingLeft=4;spacingRight=4;overflow=hidden;rotatable=0;points=[[0,0.5],[1,0.5]];portConstraint=eastwest;whiteSpace=wrap;html=1;" vertex="1" parent="e4H0x4Xwtdk4AJO3a8ik-8">
          <mxGeometry y="52" width="140" height="26" as="geometry" />
        </mxCell>
        <mxCell id="e4H0x4Xwtdk4AJO3a8ik-16" value="" style="endArrow=block;endFill=1;html=1;edgeStyle=orthogonalEdgeStyle;align=left;verticalAlign=top;rounded=0;exitX=0.442;exitY=1.131;exitDx=0;exitDy=0;exitPerimeter=0;" edge="1" parent="WIyWlLk6GJQsqaUBKTNV-1" source="e4H0x4Xwtdk4AJO3a8ik-7">
          <mxGeometry x="-1" relative="1" as="geometry">
            <mxPoint x="230" y="439" as="sourcePoint" />
            <mxPoint x="180" y="459" as="targetPoint" />
            <Array as="points">
              <mxPoint x="181" y="426" />
              <mxPoint x="180" y="459" />
            </Array>
          </mxGeometry>
        </mxCell>
        <mxCell id="e4H0x4Xwtdk4AJO3a8ik-17" value="1" style="edgeLabel;resizable=0;html=1;align=left;verticalAlign=bottom;" connectable="0" vertex="1" parent="e4H0x4Xwtdk4AJO3a8ik-16">
          <mxGeometry x="-1" relative="1" as="geometry">
            <mxPoint y="33" as="offset" />
          </mxGeometry>
        </mxCell>
        <mxCell id="e4H0x4Xwtdk4AJO3a8ik-18" value="Question" style="swimlane;fontStyle=1;align=center;verticalAlign=top;childLayout=stackLayout;horizontal=1;startSize=26;horizontalStack=0;resizeParent=1;resizeParentMax=0;resizeLast=0;collapsible=1;marginBottom=0;whiteSpace=wrap;html=1;" vertex="1" parent="WIyWlLk6GJQsqaUBKTNV-1">
          <mxGeometry x="570" y="280" width="160" height="154" as="geometry" />
        </mxCell>
        <mxCell id="e4H0x4Xwtdk4AJO3a8ik-19" value="- Id: int&lt;div&gt;- Text: string&lt;/div&gt;&lt;div&gt;- Answers: Lis&amp;lt;string&amp;gt;&lt;/div&gt;&lt;div&gt;- CorrectAnswer: int&lt;/div&gt;&lt;div&gt;- CreatedBy: int&lt;/div&gt;" style="text;strokeColor=none;fillColor=none;align=left;verticalAlign=top;spacingLeft=4;spacingRight=4;overflow=hidden;rotatable=0;points=[[0,0.5],[1,0.5]];portConstraint=eastwest;whiteSpace=wrap;html=1;" vertex="1" parent="e4H0x4Xwtdk4AJO3a8ik-18">
          <mxGeometry y="26" width="160" height="94" as="geometry" />
        </mxCell>
        <mxCell id="e4H0x4Xwtdk4AJO3a8ik-20" value="" style="line;strokeWidth=1;fillColor=none;align=left;verticalAlign=middle;spacingTop=-1;spacingLeft=3;spacingRight=3;rotatable=0;labelPosition=right;points=[];portConstraint=eastwest;strokeColor=inherit;" vertex="1" parent="e4H0x4Xwtdk4AJO3a8ik-18">
          <mxGeometry y="120" width="160" height="8" as="geometry" />
        </mxCell>
        <mxCell id="e4H0x4Xwtdk4AJO3a8ik-21" value="+ User: User" style="text;strokeColor=none;fillColor=none;align=left;verticalAlign=top;spacingLeft=4;spacingRight=4;overflow=hidden;rotatable=0;points=[[0,0.5],[1,0.5]];portConstraint=eastwest;whiteSpace=wrap;html=1;" vertex="1" parent="e4H0x4Xwtdk4AJO3a8ik-18">
          <mxGeometry y="128" width="160" height="26" as="geometry" />
        </mxCell>
        <mxCell id="e4H0x4Xwtdk4AJO3a8ik-23" value="Exam" style="swimlane;fontStyle=1;align=center;verticalAlign=top;childLayout=stackLayout;horizontal=1;startSize=26;horizontalStack=0;resizeParent=1;resizeParentMax=0;resizeLast=0;collapsible=1;marginBottom=0;whiteSpace=wrap;html=1;" vertex="1" parent="WIyWlLk6GJQsqaUBKTNV-1">
          <mxGeometry x="340" y="445" width="170" height="140" as="geometry" />
        </mxCell>
        <mxCell id="e4H0x4Xwtdk4AJO3a8ik-24" value="- Id: int&lt;div&gt;- ExamType: enum&lt;/div&gt;&lt;div&gt;- CreatedBy: int&lt;/div&gt;&lt;div&gt;- TotalQuestions: int&lt;/div&gt;" style="text;strokeColor=none;fillColor=none;align=left;verticalAlign=top;spacingLeft=4;spacingRight=4;overflow=hidden;rotatable=0;points=[[0,0.5],[1,0.5]];portConstraint=eastwest;whiteSpace=wrap;html=1;" vertex="1" parent="e4H0x4Xwtdk4AJO3a8ik-23">
          <mxGeometry y="26" width="170" height="64" as="geometry" />
        </mxCell>
        <mxCell id="e4H0x4Xwtdk4AJO3a8ik-25" value="" style="line;strokeWidth=1;fillColor=none;align=left;verticalAlign=middle;spacingTop=-1;spacingLeft=3;spacingRight=3;rotatable=0;labelPosition=right;points=[];portConstraint=eastwest;strokeColor=inherit;" vertex="1" parent="e4H0x4Xwtdk4AJO3a8ik-23">
          <mxGeometry y="90" width="170" height="8" as="geometry" />
        </mxCell>
        <mxCell id="e4H0x4Xwtdk4AJO3a8ik-26" value="+ Questions: List&amp;lt;Question&lt;span style=&quot;background-color: initial;&quot;&gt;&amp;gt;&lt;/span&gt;&lt;div&gt;&lt;span style=&quot;background-color: initial;&quot;&gt;+ User: User&lt;/span&gt;&lt;/div&gt;" style="text;strokeColor=none;fillColor=none;align=left;verticalAlign=top;spacingLeft=4;spacingRight=4;overflow=hidden;rotatable=0;points=[[0,0.5],[1,0.5]];portConstraint=eastwest;whiteSpace=wrap;html=1;" vertex="1" parent="e4H0x4Xwtdk4AJO3a8ik-23">
          <mxGeometry y="98" width="170" height="42" as="geometry" />
        </mxCell>
        <mxCell id="e4H0x4Xwtdk4AJO3a8ik-27" value="Score" style="swimlane;fontStyle=1;align=center;verticalAlign=top;childLayout=stackLayout;horizontal=1;startSize=26;horizontalStack=0;resizeParent=1;resizeParentMax=0;resizeLast=0;collapsible=1;marginBottom=0;whiteSpace=wrap;html=1;" vertex="1" parent="WIyWlLk6GJQsqaUBKTNV-1">
          <mxGeometry x="810" y="434" width="160" height="144" as="geometry" />
        </mxCell>
        <mxCell id="e4H0x4Xwtdk4AJO3a8ik-28" value="- Id: int&lt;div&gt;- ExamId: int&lt;/div&gt;&lt;div&gt;- TotalPonts: int&lt;/div&gt;&lt;div&gt;- CorrectAnswers: int&lt;/div&gt;&lt;div&gt;- Date DateTime&lt;/div&gt;" style="text;strokeColor=none;fillColor=none;align=left;verticalAlign=top;spacingLeft=4;spacingRight=4;overflow=hidden;rotatable=0;points=[[0,0.5],[1,0.5]];portConstraint=eastwest;whiteSpace=wrap;html=1;" vertex="1" parent="e4H0x4Xwtdk4AJO3a8ik-27">
          <mxGeometry y="26" width="160" height="84" as="geometry" />
        </mxCell>
        <mxCell id="e4H0x4Xwtdk4AJO3a8ik-29" value="" style="line;strokeWidth=1;fillColor=none;align=left;verticalAlign=middle;spacingTop=-1;spacingLeft=3;spacingRight=3;rotatable=0;labelPosition=right;points=[];portConstraint=eastwest;strokeColor=inherit;" vertex="1" parent="e4H0x4Xwtdk4AJO3a8ik-27">
          <mxGeometry y="110" width="160" height="8" as="geometry" />
        </mxCell>
        <mxCell id="e4H0x4Xwtdk4AJO3a8ik-30" value="+ Exam: Exam" style="text;strokeColor=none;fillColor=none;align=left;verticalAlign=top;spacingLeft=4;spacingRight=4;overflow=hidden;rotatable=0;points=[[0,0.5],[1,0.5]];portConstraint=eastwest;whiteSpace=wrap;html=1;" vertex="1" parent="e4H0x4Xwtdk4AJO3a8ik-27">
          <mxGeometry y="118" width="160" height="26" as="geometry" />
        </mxCell>
        <mxCell id="e4H0x4Xwtdk4AJO3a8ik-31" value="QuizDbContext" style="swimlane;fontStyle=0;childLayout=stackLayout;horizontal=1;startSize=26;fillColor=none;horizontalStack=0;resizeParent=1;resizeParentMax=0;resizeLast=0;collapsible=1;marginBottom=0;whiteSpace=wrap;html=1;" vertex="1" parent="WIyWlLk6GJQsqaUBKTNV-1">
          <mxGeometry x="390" y="60" width="210" height="120" as="geometry" />
        </mxCell>
        <mxCell id="e4H0x4Xwtdk4AJO3a8ik-32" value="+ Users: DbSet&amp;lt;User&amp;gt;&lt;div&gt;+ Roles: DbSet&amp;lt;Role&amp;gt;&lt;/div&gt;&lt;div&gt;+ Questions: DbSet&amp;lt;Question&amp;gt;&lt;/div&gt;&lt;div&gt;+ Exams: DbSet&amp;lt;Exam&amp;gt;&lt;/div&gt;&lt;div&gt;+ Scores: DbSet&amp;lt;Score&amp;gt;&lt;/div&gt;" style="text;strokeColor=none;fillColor=none;align=left;verticalAlign=top;spacingLeft=4;spacingRight=4;overflow=hidden;rotatable=0;points=[[0,0.5],[1,0.5]];portConstraint=eastwest;whiteSpace=wrap;html=1;" vertex="1" parent="e4H0x4Xwtdk4AJO3a8ik-31">
          <mxGeometry y="26" width="210" height="94" as="geometry" />
        </mxCell>
        <mxCell id="e4H0x4Xwtdk4AJO3a8ik-36" value="1" style="endArrow=open;html=1;endSize=12;startArrow=diamondThin;startSize=14;startFill=1;edgeStyle=orthogonalEdgeStyle;align=left;verticalAlign=bottom;rounded=0;exitX=0.446;exitY=1.045;exitDx=0;exitDy=0;exitPerimeter=0;entryX=0.5;entryY=0;entryDx=0;entryDy=0;" edge="1" parent="WIyWlLk6GJQsqaUBKTNV-1" source="e4H0x4Xwtdk4AJO3a8ik-32" target="e4H0x4Xwtdk4AJO3a8ik-4">
          <mxGeometry x="-1" y="3" relative="1" as="geometry">
            <mxPoint x="460" y="240" as="sourcePoint" />
            <mxPoint x="620" y="240" as="targetPoint" />
          </mxGeometry>
        </mxCell>
        <mxCell id="e4H0x4Xwtdk4AJO3a8ik-37" value="1" style="endArrow=open;html=1;endSize=12;startArrow=diamondThin;startSize=14;startFill=1;edgeStyle=orthogonalEdgeStyle;align=left;verticalAlign=bottom;rounded=0;exitX=0.411;exitY=1.011;exitDx=0;exitDy=0;exitPerimeter=0;entryX=0.5;entryY=0;entryDx=0;entryDy=0;" edge="1" parent="WIyWlLk6GJQsqaUBKTNV-1" source="e4H0x4Xwtdk4AJO3a8ik-32" target="e4H0x4Xwtdk4AJO3a8ik-23">
          <mxGeometry x="-1" y="3" relative="1" as="geometry">
            <mxPoint x="610" y="300" as="sourcePoint" />
            <mxPoint x="770" y="300" as="targetPoint" />
          </mxGeometry>
        </mxCell>
        <mxCell id="e4H0x4Xwtdk4AJO3a8ik-38" value="1" style="endArrow=open;html=1;endSize=12;startArrow=diamondThin;startSize=14;startFill=1;edgeStyle=orthogonalEdgeStyle;align=left;verticalAlign=bottom;rounded=0;entryX=0.5;entryY=0;entryDx=0;entryDy=0;" edge="1" parent="WIyWlLk6GJQsqaUBKTNV-1" target="e4H0x4Xwtdk4AJO3a8ik-18">
          <mxGeometry x="-1" y="3" relative="1" as="geometry">
            <mxPoint x="470" y="190" as="sourcePoint" />
            <mxPoint x="770" y="300" as="targetPoint" />
          </mxGeometry>
        </mxCell>
        <mxCell id="e4H0x4Xwtdk4AJO3a8ik-39" value="1" style="endArrow=open;html=1;endSize=12;startArrow=diamondThin;startSize=14;startFill=1;edgeStyle=orthogonalEdgeStyle;align=left;verticalAlign=bottom;rounded=0;entryX=0.5;entryY=0;entryDx=0;entryDy=0;" edge="1" parent="WIyWlLk6GJQsqaUBKTNV-1" target="e4H0x4Xwtdk4AJO3a8ik-27">
          <mxGeometry x="-1" y="3" relative="1" as="geometry">
            <mxPoint x="480" y="190" as="sourcePoint" />
            <mxPoint x="770" y="300" as="targetPoint" />
          </mxGeometry>
        </mxCell>
        <mxCell id="e4H0x4Xwtdk4AJO3a8ik-40" value="" style="endArrow=open;endFill=1;endSize=12;html=1;rounded=0;exitX=-0.025;exitY=0.602;exitDx=0;exitDy=0;exitPerimeter=0;entryX=1.063;entryY=1.043;entryDx=0;entryDy=0;entryPerimeter=0;" edge="1" parent="WIyWlLk6GJQsqaUBKTNV-1" source="e4H0x4Xwtdk4AJO3a8ik-19" target="e4H0x4Xwtdk4AJO3a8ik-5">
          <mxGeometry width="160" relative="1" as="geometry">
            <mxPoint x="610" y="400" as="sourcePoint" />
            <mxPoint x="770" y="400" as="targetPoint" />
          </mxGeometry>
        </mxCell>
        <mxCell id="e4H0x4Xwtdk4AJO3a8ik-41" value="" style="endArrow=open;endFill=1;endSize=12;html=1;rounded=0;exitX=0.25;exitY=0;exitDx=0;exitDy=0;entryX=1.01;entryY=0.671;entryDx=0;entryDy=0;entryPerimeter=0;" edge="1" parent="WIyWlLk6GJQsqaUBKTNV-1" source="e4H0x4Xwtdk4AJO3a8ik-23" target="e4H0x4Xwtdk4AJO3a8ik-5">
          <mxGeometry width="160" relative="1" as="geometry">
            <mxPoint x="610" y="400" as="sourcePoint" />
            <mxPoint x="383" y="250" as="targetPoint" />
            <Array as="points">
              <mxPoint x="383" y="330" />
            </Array>
          </mxGeometry>
        </mxCell>
        <mxCell id="e4H0x4Xwtdk4AJO3a8ik-42" value="" style="endArrow=open;endFill=1;endSize=12;html=1;rounded=0;exitX=-0.025;exitY=0.774;exitDx=0;exitDy=0;exitPerimeter=0;entryX=1;entryY=0.831;entryDx=0;entryDy=0;entryPerimeter=0;" edge="1" parent="WIyWlLk6GJQsqaUBKTNV-1" source="e4H0x4Xwtdk4AJO3a8ik-28" target="e4H0x4Xwtdk4AJO3a8ik-24">
          <mxGeometry width="160" relative="1" as="geometry">
            <mxPoint x="610" y="400" as="sourcePoint" />
            <mxPoint x="770" y="400" as="targetPoint" />
          </mxGeometry>
        </mxCell>
      </root>
    </mxGraphModel>
  </diagram>
</mxfile>
